<?xml version="1.0" encoding="utf-8"?>
<!-- Generator: Adobe Illustrator 25.0.0, SVG Export Plug-In . SVG Version: 6.00 Build 0)  -->
<svg version="1.1" xmlns="http://www.w3.org/2000/svg" xmlns:xlink="http://www.w3.org/1999/xlink" x="0px" y="0px"
	 viewBox="0 0 595.28 841.89" style="enable-background:new 0 0 595.28 841.89;" xml:space="preserve">
<style type="text/css">
	.st0{fill:#21409A;stroke:#000000;stroke-miterlimit:10;}
	.st1{fill:#FFFFFF;stroke:#000000;stroke-miterlimit:10;}
	.st2{font-family:'PremierLeague';}
	.st3{font-size:53px;}
</style>
<g id="Layer_2">
	<path class="st0" d="M54.53,344.65c23.16-4.12,43.23-8.01,59.47-11.29c16.26-3.29,28.76-5.9,37.06-7.76
		c19.12-4.29,38.24-8.59,57.35-12.88c3.53-4,7.06-8,10.59-12c-1.06-11.12-2.12-22.24-3.18-33.35c6.18-3.41,12.35-6.82,18.53-10.24
		c0.47-0.29,0.94-0.59,1.41-0.88c7.62,6.71,15.24,13.41,22.85,20.12c5.74-1.41,11.47-2.82,17.21-4.24
		c4.24-9.53,8.47-19.06,12.71-28.59c7.53,0,15.06,0,22.59,0c3.53,10,7.06,20,10.59,30c5.18,1.53,10.35,3.06,15.53,4.59
		c8.35-6.24,16.71-12.47,25.06-18.71c6.71,3.76,13.41,7.53,20.12,11.29c-1.18,10.24-2.35,20.47-3.53,30.71
		c3.18,4.12,6.35,8.24,9.53,12.35c10.82-1.41,21.65-2.82,32.47-4.24c3.65,7.29,7.29,14.59,10.94,21.88
		c-2.94,3.76-5.88,7.53-8.82,11.29c-14,0.24-28,0.47-42,0.71c-1.78-3.26-4.51-7.78-8.47-12.71c-9.66-12.02-20.13-18.38-25.41-21.53
		c-10.23-6.1-18.86-8.82-21.18-9.53c-2.92-0.89-11.32-3.29-22.59-3.88c-10.89-0.57-19.55,0.79-24.35,1.76
		c-9.75,1.97-16.69,4.95-21.53,7.06c-5.47,2.39-13.38,5.89-22.24,12.71c-2.13,1.64-7.71,6.1-13.76,13.06
		c-4.48,5.16-7.81,10.07-10.24,14.12C159,344.53,106.76,344.59,54.53,344.65z"/>
</g>
<g id="Layer_3">
	<path class="st0" d="M512.65,445.53c-44.24,9.33-88.47,18.67-132.71,28c-3.53,4.24-7.06,8.47-10.59,12.71
		c1.33,11.29,2.67,22.59,4,33.88c-14.19,7.7-21.17,11.78-20.94,12.24c0.06,0.13,0.69-0.03,1.88-0.47
		c-8.78-6.82-17.57-13.65-26.35-20.47c-5.49,1.33-10.98,2.67-16.47,4c-3.92,9.73-7.84,19.45-11.76,29.18
		c-7.61,0.47-15.22,0.94-22.82,1.41c-3.45-10.35-6.9-20.71-10.35-31.06c-6.35-1.65-12.71-3.29-19.06-4.94
		c-7.37,6.41-14.75,12.82-22.12,19.24c-6.59-3.94-13.18-7.88-19.76-11.82c1.12-10.59,2.24-21.18,3.35-31.76
		c-3.18-3.71-6.35-7.41-9.53-11.12c-10.82,1.06-21.65,2.12-32.47,3.18c-3.35-6.76-6.71-13.53-10.06-20.29
		c1.76-3.47,3.53-6.94,5.29-10.41c15.88-0.24,31.76-0.47,47.65-0.71c0.71,1.15,1.72,2.74,3,4.59c9.51,13.72,20.24,21.89,24.71,25.06
		c12.95,9.2,25.43,13.46,33.53,15.53c18.96,4.85,34.34,2.92,39.53,2.12c6.69-1.03,18.42-3.56,31.06-10.41
		c7.41-4.02,12.82-8.26,15.53-10.41c7.55-5.99,12.5-11.42,14.12-13.24c4.19-4.71,7.38-9.13,9.71-12.71
		C424.88,446.39,468.76,445.96,512.65,445.53z"/>
</g>
<g id="Layer_4">
	<polygon class="st0" points="105.12,434.94 184.65,434.94 198.53,414 130.53,414 130.06,400.35 181.35,400.35 193.82,384.35 
		105.12,384.35 	"/>
	<path class="st1" d="M215.65,434.47c-0.12-13.65-0.24-27.29-0.35-40.94c23.12-0.06,46.24-0.12,69.35-0.18
		c1.24,0.2,3.26,0.37,5.65-0.18c1.65-0.38,4.44-1.02,6.53-3.53c2.79-3.34,2.22-7.47,2.12-8.12c-0.04-0.27-0.75-4.42-4.41-7.06
		c0,0-2.56-1.84-6.18-2.12c-6.16-0.47-81.16-0.3-183.53,0.35c0.06-6.35,0.12-12.71,0.18-19.06c62.76-0.29,125.53-0.59,188.29-0.88
		c2.03-0.08,5.01,0.01,8.47,0.88c5.26,1.32,8.78,3.73,10.76,5.12c2.2,1.53,4.7,3.31,7.06,6.53c2.45,3.34,3.48,6.49,3.88,7.94
		c0.83,2.97,0.85,5.23,0.88,8.29c0.03,3.51,0.06,5.85-0.88,8.82c-0.96,3.05-2.42,5.12-3.53,6.71c-0.74,1.06-2.37,3.23-4.94,5.47
		c-2.48,2.16-4.68,3.37-5.29,3.71c-1.36,0.73-2.59,1.24-3.53,1.59c8,8.88,16,17.76,24,26.65c-11.35-0.06-22.71-0.12-34.06-0.18
		c-6.24-7.12-12.47-14.24-18.71-21.35c-13.18,0-26.35,0-39.53,0c0.12,7.24,0.24,14.47,0.35,21.71
		C230.71,434.59,223.18,434.53,215.65,434.47z"/>
</g>
<g id="Layer_5">
	<text transform="matrix(1 0 0 1 353.8239 416.8236)" class="st2 st3">ZANAT</text>
</g>
<g id="Layer_8">
	<path d="M363.59,343.41c-5.96-6.67-19.57-19.99-41.31-26.29c-36.37-10.53-66.67,6.95-72.22,10.29c4.42-3.55,29.82-23.3,66-18.82
		c36.97,4.57,56.96,30.93,60.24,35.41C372.06,343.8,367.82,343.61,363.59,343.41z"/>
</g>
<g id="Layer_9">
	<path d="M230.88,445.29c5.15,7.38,12.81,15.84,23.92,22.21c39.25,22.51,85.1-1.96,89.38-4.32c-4.48,3.47-31.9,24.02-69.65,17.76
		c-34.77-5.76-53.64-30.18-57.41-35.29C221.71,445.53,226.29,445.41,230.88,445.29z"/>
</g>
<g id="Layer_10">
	<path d="M364.88,446c-5.13,8.12-16.29,23.09-36,32.35c-41.65,19.58-83.15-4.34-87.29-6.82c4.92,3.45,36.53,24.84,77.41,15.18
		c35.21-8.32,53.45-34.05,57.53-40.12C372.65,446.39,368.76,446.2,364.88,446z"/>
</g>
<g id="Layer_7">
	<path d="M217.94,344.29c3.05-4,36.8-46.81,87.51-42.74c21.28,1.71,37.15,11,45.79,17.15c-5.07-3.17-32.28-19.49-67.41-11.29
		c-33.44,7.8-50.46,32.29-54,37.65C225.86,344.8,221.9,344.55,217.94,344.29z"/>
</g>
</svg>
